<svg xmlns="http://www.w3.org/2000/svg" width="60.239605" height="38.120579">
  <g transform="translate(6.5774655,-10.041566)">
    <path d="M 52.907108,28.857407 C 52.203908,33.576167 50.118008,37.068347 46.649308,39.333967 C 43.180508,41.599587 39.438308,42.732407 35.422708,42.732407 C 31.407008,42.732407 28.868008,42.076157 27.805508,40.763657 C 26.743008,39.451157 25.899208,38.974597 25.274308,39.333967 C 22.102408,40.052717 19.493008,40.779277 17.446208,41.513657 C 15.399308,42.232407 12.500808,42.662087 8.7508073,42.802717 C 5.0008073,42.943337 1.8524073,42.130837 -0.6944927,40.365217 C -3.2256927,38.599597 -4.8741927,35.388657 -5.6397927,30.732407 C -6.3897927,26.076167 -5.5381927,22.607427 -3.0850927,20.326157 C -0.6319927,18.044927 2.7118073,16.193367 6.9462073,14.771467 C 9.6336073,14.474617 10.328908,15.396497 9.0321073,17.537087 C 3.3290073,21.599607 0.9227073,25.748047 1.8133073,29.982407 C 2.7196073,34.201157 4.3915073,37.169907 6.8290073,38.888657 C 9.2664073,40.591777 12.157108,40.990217 15.500808,40.083967 C 18.844608,39.162097 20.969608,38.138657 21.875808,37.013657 L 21.969608,26.654277 L 22.133708,17.443337 C 23.539908,16.349617 25.711708,16.263677 28.649308,17.185527 C 28.055508,22.935547 28.422708,29.208977 29.750808,36.005837 C 31.344608,38.896467 33.852408,40.208967 37.274308,39.943337 C 40.696108,39.662097 42.938308,38.419907 44.000808,36.216777 C 45.063308,33.998037 45.766408,31.998037 46.110208,30.216777 C 46.453908,28.419917 46.336708,26.373047 45.758708,24.076157 C 45.196108,21.779297 43.289908,20.193367 40.039908,19.318337 C 36.789908,18.443367 36.016408,17.201177 37.719608,15.591777 C 40.985208,15.701177 44.094508,16.177747 47.047708,17.021467 C 51.657008,20.177737 53.610208,24.123047 52.907108,28.857407" fill="#fff"/>
  </g>
</svg>